<svg width="18" height="18" viewBox="0 0 18 18" fill="none" xmlns="http://www.w3.org/2000/svg">
<path fill-rule="evenodd" clip-rule="evenodd" d="M9.89576 3.08632C9.89576 2.62443 9.52132 2.25 9.05944 2.25C8.59755 2.25 8.22312 2.62443 8.22312 3.08632L8.22311 8.10424L3.08632 8.10424C2.62443 8.10424 2.25 8.47868 2.25 8.94056C2.25 9.40245 2.62443 9.77688 3.08632 9.77689H8.22311L8.22311 14.9137C8.22311 15.3756 8.59755 15.75 9.05943 15.75C9.52132 15.75 9.89576 15.3756 9.89575 14.9137L9.89576 9.77689H14.9137C15.3756 9.77689 15.75 9.40245 15.75 8.94057C15.75 8.47868 15.3756 8.10425 14.9137 8.10425L9.89576 8.10424L9.89576 3.08632Z" fill="black"/>
</svg>
